# xmcd CD database file
#
# Track frame offsets:
#	150
#	19111
#	40889
#	57981
#	80008
#	103206
#	123286
#	137890
#	156322
#	173935
#	196448
#	216762
#
# Disc length: 3160 seconds
#
# Revision: 0
# Processed by: cddbd v1.4PL0 Copyright (c) Steve Scherf et al.
# Submitted via: CDex 1.50
#
DISCID=ae0c560c
DTITLE=Sur Caribe - Con To`
DYEAR=2001
DGENRE=Salsa
TTITLE0=El poder de las mujeres
TTITLE1=El sabado es sensacional
TTITLE2=¿Como se lo digo?
TTITLE3=En este mundo loco
TTITLE4=Canten
TTITLE5=El permiso de mama y papa
TTITLE6=Gracias por tu presencia
TTITLE7=Guajira con tumbao
TTITLE8=Problemas con caray
TTITLE9=El gustazo
TTITLE10=Jugaste a quererme
TTITLE11=Para que tu vuelvas loca
EXTD=YEAR: 2001
EXTT0=
EXTT1=
EXTT2=
EXTT3=
EXTT4=
EXTT5=
EXTT6=
EXTT7=
EXTT8=
EXTT9=
EXTT10=
EXTT11=
PLAYORDER=
